<?xml version="1.0" encoding="UTF-8"?>
<!DOCTYPE svg PUBLIC "-//W3C//DTD SVG 1.1//EN" "http://www.w3.org/Graphics/SVG/1.1/DTD/svg11.dtd">
<!-- Creator: CorelDRAW 2021 (64-Bit) -->
<svg xmlns="http://www.w3.org/2000/svg" xml:space="preserve" width="162.56mm" height="162.56mm" version="1.1" style="shape-rendering:geometricPrecision; text-rendering:geometricPrecision; image-rendering:optimizeQuality; fill-rule:evenodd; clip-rule:evenodd"
viewBox="0 0 16255.98 16255.98"
 xmlns:xlink="http://www.w3.org/1999/xlink"
 xmlns:xodm="http://www.corel.com/coreldraw/odm/2003">
 <defs>
  <style type="text/css">
   <![CDATA[
    .fil2 {fill:none}
    .fil0 {fill:#12357D}
    .fil1 {fill:#8BC5F5;fill-rule:nonzero}
   ]]>
  </style>
   <clipPath id="id0">
    <path d="M8127.99 -0.01c4489.07,0 8128,3638.93 8128,8128 0,4489.07 -3638.93,8128 -8128,8128 -4489.07,0 -8128,-3638.93 -8128,-8128 0,-4489.07 3638.93,-8128 8128,-8128z"/>
   </clipPath>
 </defs>
 <g id="Layer_x0020_1">
  <metadata id="CorelCorpID_0Corel-Layer"/>
  <path class="fil0" d="M8127.99 -0.01c4489.07,0 8128,3638.93 8128,8128 0,4489.07 -3638.93,8128 -8128,8128 -4489.07,0 -8128,-3638.93 -8128,-8128 0,-4489.07 3638.93,-8128 8128,-8128z"/>
  <g style="clip-path:url(#id0)">
   <g id="_2081907864064">
    <g>
     <g>
      <g>
       <path id="_1" class="fil1" d="M4783.29 5795.22l-891.98 0c-123.1,0 -223.01,99.91 -223.01,223.01 0,123.1 99.91,223 223.01,223l891.98 -0.01c123.1,0 223.01,-99.91 223.01,-223 0,-123.1 -99.91,-223 -223.01,-223z"/>
      </g>
     </g>
     <g>
      <g>
       <path class="fil1" d="M11908.85 6396.86c-42.38,-133.35 -893.33,-1936.48 -1211.76,-2130.04 -331.37,-201.59 -2313.77,-255.54 -2568.89,-255.54 -255.11,0 -2237.51,53.97 -2568.89,255.55 -318.43,193.11 -1169.37,1996.68 -1211.75,2130.04 -37.46,117.31 28.09,242.62 145.4,280.07 118.64,37.03 243.07,-28.09 280.07,-145.39 70.01,-221.66 843.36,-1730.89 1013.28,-1880.74 188.67,-90.08 1577.92,-193.55 2341.89,-193.55 763.98,0 2153.22,103.47 2326.28,182.87 185.08,160.55 958.89,1669.77 1028.9,1891.44 30.33,94.99 118.18,155.64 212.74,155.64 22.31,0 45.05,-3.11 67.8,-10.27 116.83,-37.47 182.4,-162.79 144.93,-280.08z"/>
      </g>
     </g>
     <g>
      <g>
       <path class="fil1" d="M4783.29 10255.09c-104.35,0 -188.21,73.15 -212.29,169.92l-1348.66 -337.17 0 -55.76c0,-123.09 -99.91,-223 -223.01,-223 -123.1,0 -222.98,99.94 -222.98,223.04l0 891.99c0,368.83 300.15,668.98 668.98,668.98l891.99 -0.01c368.83,0 668.98,-300.15 668.98,-668.99l0 -445.99c0,-123.1 -99.91,-223.01 -223.01,-223.01z"/>
      </g>
     </g>
     <g>
      <g>
       <path class="fil1" d="M13257.05 9809.11c-123.1,0 -223,99.91 -223,223.01l0 55.75 -1348.67 337.18c-24.08,-96.78 -107.93,-169.93 -212.29,-169.93 -123.1,0 -223.01,99.91 -223.01,223.01l0 445.98c0,368.83 300.15,668.98 668.98,668.98l892.02 -0.01c368.83,0 668.98,-300.15 668.98,-668.99l0 -891.98c0,-123.09 -99.91,-223 -223.01,-223z"/>
      </g>
     </g>
     <g>
      <g>
       <path class="fil1" d="M12365.1 5795.22l-891.99 0c-123.1,0 -223,99.91 -223,223.01 0,123.1 99.9,223 223,223l891.99 -0.01c123.1,0 223.01,-99.91 223.01,-223 0,-123.1 -99.92,-223 -223.01,-223z"/>
      </g>
     </g>
     <g>
      <g>
       <path class="fil1" d="M13462.66 7898.94l-608.33 121.75c-74.93,11.6 -1572.55,227.45 -1952.09,227.45 -54.42,43.26 -103.47,329.58 -97.68,597.64 1359.38,-64.22 2417.7,-149.41 2434.65,-150.75l240.39 -32.55c-0.44,-295.69 -4.89,-548.13 -16.94,-763.54z"/>
      </g>
     </g>
     <g>
      <g>
       <path class="fil1" d="M13096.96 6918.67c-99.9,-29 -152.09,-101.69 -251.1,-249.77l-76.26 -111.48c-133.35,-185.98 -391.12,-194.01 -640.44,-201.14 -74.93,-2.24 -193.57,-5.8 -249.77,-18.73 -19.17,-28.1 -45.05,-51.74 -76.26,-68.68 -416.09,-228.8 -1992.66,-473.65 -3674.93,-473.65 -1682.26,0 -3258.83,244.85 -3674.95,473.64 -31.21,16.95 -57.09,40.58 -76.71,69.13 -56.19,12.94 -174.83,16.5 -249.76,18.73 -248.86,7.13 -506.65,14.72 -639.99,200.7l-76.26 111.95c-99.01,148.08 -151.19,220.77 -251.1,249.77 -174.84,51.28 -270.71,230.56 -323.79,556.59l440.63 110.15c7.12,0 1461.95,216.31 1952.98,216.31 168.58,0 317.09,64.22 429.48,185.54 236.39,255.54 247.53,703.32 241.73,877.7 717.59,29.88 1492.27,51.74 2227.72,51.74 736.32,0 1511.45,-21.84 2229.95,-51.74 -4.92,-197.12 6.25,-690.82 227.01,-924.09 86.53,-90.98 195.78,-139.15 317.1,-139.15 288.55,0 1453.03,-159.22 1877.16,-220.77l638.21 -128c-53.52,-312.65 -149.39,-484.8 -320.65,-534.75zm-3407.79 1552.48l-3121.94 0c-123.09,0 -223,-99.91 -223,-223.01 0,-123.09 99.91,-223 223,-223l3121.92 0.01c123.1,0 223,99.91 223,223.01 0,123.09 -99.89,222.99 -222.98,222.99z"/>
      </g>
     </g>
     <g>
      <g>
       <path class="fil1" d="M13286.49 9138.35c-38.8,3.12 -2798.12,224.78 -5158.29,224.78 -2360.16,0 -5119.48,-221.66 -5146.71,-223.44l-193.56 -20.08c24.07,483.9 98.57,1209.52 329.57,1332.62 240.83,128 3026.91,248.86 5010.68,248.86 1983.77,0 4769.85,-120.86 5010.23,-249.3 231.91,-123.53 306.4,-854.06 330.05,-1337.96l-181.97 24.52z"/>
      </g>
     </g>
     <g>
      <g>
       <path class="fil1" d="M5330.96 8290.09c-27.66,-29.88 -57.09,-41.92 -101.69,-41.92 -526.25,0 -1978.41,-216.31 -2039.95,-225.22l-397.38 -99.01c-11.14,211.38 -15.15,458.9 -15.59,745.67l245.75 25.42c14.28,1.34 1072.15,86.08 2431.52,150.75 4.45,-161 -16.96,-441.53 -122.66,-555.69z"/>
      </g>
     </g>
     <g>
     </g>
     <g>
     </g>
     <g>
     </g>
     <g>
     </g>
     <g>
     </g>
     <g>
     </g>
     <g>
     </g>
     <g>
     </g>
     <g>
     </g>
     <g>
     </g>
     <g>
     </g>
     <g>
     </g>
     <g>
     </g>
     <g>
     </g>
     <g>
     </g>
    </g>
   </g>
  </g>
  <path class="fil2" d="M8127.99 -0.01c4489.07,0 8128,3638.93 8128,8128 0,4489.07 -3638.93,8128 -8128,8128 -4489.07,0 -8128,-3638.93 -8128,-8128 0,-4489.07 3638.93,-8128 8128,-8128z"/>
 </g>
</svg>
