<?xml version="1.0" encoding="UTF-8"?>
<!DOCTYPE svg PUBLIC "-//W3C//DTD SVG 1.1//EN" "http://www.w3.org/Graphics/SVG/1.1/DTD/svg11.dtd">
<!-- Creator: CorelDRAW 2021 (64-Bit) -->
<svg xmlns="http://www.w3.org/2000/svg" xml:space="preserve" width="162.56mm" height="162.56mm" version="1.1" style="shape-rendering:geometricPrecision; text-rendering:geometricPrecision; image-rendering:optimizeQuality; fill-rule:evenodd; clip-rule:evenodd"
viewBox="0 0 16255.98 16255.98"
 xmlns:xlink="http://www.w3.org/1999/xlink"
 xmlns:xodm="http://www.corel.com/coreldraw/odm/2003">
 <defs>
  <style type="text/css">
   <![CDATA[
    .fil0 {fill:#8BC5F5}
    .fil1 {fill:white;fill-rule:nonzero}
   ]]>
  </style>
 </defs>
 <g id="Layer_x0020_1">
  <metadata id="CorelCorpID_0Corel-Layer"/>
  <g id="_2084522142864">
   <circle class="fil0" cx="8127.99" cy="8127.98" r="8128"/>
   <g>
    <path class="fil1" d="M13284.43 12786.1l-10313.42 0c-92.03,0 -166.34,-94.61 -166.34,-211.78 0,-117.18 74.31,-211.8 166.34,-211.8l10313.42 0c92.03,0 166.35,94.62 166.35,211.8 0,117.17 -74.32,211.78 -166.35,211.78z"/>
    <path class="fil1" d="M3303.7 12786.1c-92.03,0 -166.34,-94.61 -166.34,-211.78l0 -6773.5c0,-117.15 74.31,-211.78 166.34,-211.78 92.04,0 166.35,94.63 166.35,211.78l0 6773.5c0,117.17 -74.31,211.78 -166.35,211.78z"/>
    <path class="fil1" d="M13284.43 6012.61l-10313.42 0c-92.03,0 -166.34,-94.72 -166.34,-211.79 0,-117.15 74.31,-211.78 166.34,-211.78l10313.42 0c92.03,0 166.35,94.63 166.35,211.78 0,117.07 -74.32,211.79 -166.35,211.79z"/>
    <path class="fil1" d="M13284.43 3893.89l-10313.42 0c-92.03,0 -166.34,-94.74 -166.34,-211.79 0,-117.18 74.31,-211.8 166.34,-211.8l1646.49 0 7428.47 0 1238.46 0c92.03,0 166.35,94.62 166.35,211.8 0,117.05 -74.32,211.79 -166.35,211.79z"/>
    <path class="fil1" d="M12951.91 12786.1c-91.95,0 -166.34,-94.61 -166.34,-211.78l0 -6773.5c0,-117.15 74.39,-211.78 166.34,-211.78 92.03,0 166.34,94.63 166.34,211.78l0 6773.5c0,117.17 -74.31,211.78 -166.34,211.78z"/>
    <path class="fil1" d="M2971.01 6012.61c-92.03,0 -166.34,-94.72 -166.34,-211.79l0 -2118.72c0,-117.18 74.31,-211.8 166.34,-211.8 92.04,0 166.35,94.62 166.35,211.8l0 2118.72c0,117.07 -74.31,211.79 -166.35,211.79z"/>
    <path class="fil1" d="M13284.43 6012.61c-92.03,0 -166.35,-94.72 -166.35,-211.79l0 -2118.72c0,-117.18 74.32,-211.8 166.35,-211.8 92.03,0 166.35,94.62 166.35,211.8l0 2118.72c0,117.07 -74.32,211.79 -166.35,211.79z"/>
    <path class="fil1" d="M9455.97 5377.24l-2661.69 0c-91.96,0 -166.35,-94.72 -166.35,-211.79 0,-117.15 74.39,-211.8 166.35,-211.8l2661.69 0c92.03,0 166.34,94.65 166.34,211.8 0,117.07 -74.31,211.79 -166.34,211.79z"/>
    <path class="fil1" d="M6627.93 4741.87c-91.95,0 -166.34,-94.72 -166.34,-211.79 0,-117.16 74.39,-211.8 166.34,-211.8 0,-117.14 74.39,-211.79 166.35,-211.79 92.03,0 166.34,94.65 166.34,211.79 0,233.43 -149.21,423.59 -332.69,423.59z"/>
    <path class="fil1" d="M6794.28 5377.24c-91.96,0 -166.35,-94.72 -166.35,-211.79l0 -0.4c-91.95,0 -166.34,-94.53 -166.34,-211.57 0,-116.97 74.39,-211.61 166.34,-211.61 183.48,0 332.69,189.97 332.69,423.58 0,117.07 -74.31,211.79 -166.34,211.79z"/>
    <path class="fil1" d="M9455.97 5377.24c-91.95,0 -166.34,-94.72 -166.34,-211.79 0,-233.61 149.2,-423.58 332.68,-423.58 92.03,0 166.34,94.64 166.34,211.78 0,117.07 -74.31,211.8 -166.34,211.8 0,117.07 -74.31,211.79 -166.34,211.79z"/>
    <path class="fil1" d="M9622.31 4741.87c-183.48,0 -332.68,-189.95 -332.68,-423.59 0,-117.14 74.39,-211.79 166.34,-211.79 92.03,0 166.34,94.65 166.34,211.79l0 0.43c92.03,0 166.34,94.4 166.34,211.57 0,116.87 -74.31,211.59 -166.34,211.59z"/>
    <path class="fil1" d="M9455.97 4530.08l-2661.69 0c-91.96,0 -166.35,-94.73 -166.35,-211.8 0,-117.14 74.39,-211.79 166.35,-211.79l2661.69 0c92.03,0 166.34,94.65 166.34,211.79 0,117.07 -74.31,211.8 -166.34,211.8z"/>
    <path class="fil1" d="M9622.31 5165.45c-91.95,0 -166.34,-94.73 -166.34,-211.8l0 -423.57c0,-117.16 74.39,-211.8 166.34,-211.8 92.03,0 166.34,94.64 166.34,211.8l0 423.57c0,117.07 -74.31,211.8 -166.34,211.8z"/>
    <path class="fil1" d="M6627.93 5165.45c-91.95,0 -166.34,-94.73 -166.34,-211.8l0 -423.57c0,-117.16 74.39,-211.8 166.34,-211.8 92.04,0 166.35,94.64 166.35,211.8l0 423.57c0,117.07 -74.31,211.8 -166.35,211.8z"/>
    <path class="fil1" d="M5799.05 4953.25l-1996.32 0c-92.03,0 -166.34,-94.72 -166.34,-211.78 0,-117.18 74.31,-211.79 166.34,-211.79l1996.32 0c92.03,0 166.35,94.61 166.35,211.79 0,117.06 -74.32,211.78 -166.35,211.78z"/>
    <path class="fil1" d="M12452.71 4953.25l-1995.99 0c-91.94,0 -166.34,-94.72 -166.34,-211.78 0,-117.18 74.4,-211.79 166.34,-211.79l1995.99 0c92.03,0 166.34,94.61 166.34,211.79 0,117.06 -74.31,211.78 -166.34,211.78z"/>
    <path class="fil1" d="M8127.72 3894.7c-92.03,0 -166.34,-94.72 -166.34,-211.79l0 -212.61 332.69 0 0 212.61c0,117.07 -74.32,211.79 -166.35,211.79z"/>
    <path class="fil1" d="M6796.63 12786.1c-92.02,0 -166.35,-94.61 -166.35,-211.78l0 -5503.58c0,-117.18 74.33,-211.79 166.35,-211.79 91.94,0 166.35,94.61 166.35,211.79l0 5503.58c0,117.17 -74.41,211.78 -166.35,211.78z"/>
    <path class="fil1" d="M9455.97 12786.1c-91.95,0 -166.34,-94.61 -166.34,-211.78l0 -5503.58c0,-117.18 74.39,-211.79 166.34,-211.79 92.03,0 166.34,94.61 166.34,211.79l0 5503.58c0,117.17 -74.31,211.78 -166.34,211.78z"/>
    <path class="fil1" d="M9455.97 7282.53l-2659.34 0c-92.02,0 -166.35,-94.73 -166.35,-211.79 0,-117.18 74.33,-211.79 166.35,-211.79l2659.34 0c92.03,0 166.34,94.61 166.34,211.79 0,117.06 -74.31,211.79 -166.34,211.79z"/>
    <path class="fil1" d="M9455.97 10459.82l-2659.34 0c-92.02,0 -166.35,-94.72 -166.35,-211.79 0,-117.18 74.33,-211.79 166.35,-211.79l2659.34 0c92.03,0 166.34,94.61 166.34,211.79 0,117.07 -74.31,211.79 -166.34,211.79z"/>
    <path class="fil1" d="M8127.72 12786.1c-92.03,0 -166.34,-94.61 -166.34,-211.78l0 -5503.58c0,-117.18 74.31,-211.79 166.34,-211.79 92.03,0 166.35,94.61 166.35,211.79l0 5503.58c0,117.17 -74.32,211.78 -166.35,211.78z"/>
    <path class="fil1" d="M7462.34 12154.55c-92.03,0 -166.35,-94.74 -166.35,-211.79l0 -1059.36c0,-117.17 74.32,-211.78 166.35,-211.78 92.03,0 166.35,94.61 166.35,211.78l0 1059.36c0,117.05 -74.32,211.79 -166.35,211.79z"/>
    <path class="fil1" d="M8793.26 12154.55c-91.94,0 -166.34,-94.74 -166.34,-211.79l0 -1059.36c0,-117.17 74.4,-211.78 166.34,-211.78 92.03,0 166.35,94.61 166.35,211.78l0 1059.36c0,117.05 -74.32,211.79 -166.35,211.79z"/>
    <path class="fil1" d="M6131.75 10460.65l-2162.83 0c-92.03,0 -166.34,-94.62 -166.34,-211.8l0 -3178.11c0,-117.18 74.31,-211.79 166.34,-211.79l2162.83 0c92.03,0 166.34,94.61 166.34,211.79l0 3178.11c0,117.18 -74.31,211.8 -166.34,211.8zm-1996.48 -423.6l1830.13 0 0 -2754.52 -1830.13 0 0 2754.52z"/>
    <path class="fil1" d="M4634.3 8765.48c-92.04,0 -166.34,-94.72 -166.34,-211.78l0 -1482.96c0,-117.18 74.3,-211.79 166.34,-211.79 91.95,0 166.35,94.61 166.35,211.79l0 1482.96c0,117.06 -74.4,211.78 -166.35,211.78z"/>
    <path class="fil1" d="M4135.27 9400.87c-92.03,0 -166.35,-94.72 -166.35,-211.8 0,-117.17 74.32,-211.79 166.35,-211.79 183.47,0 332.69,-189.98 332.69,-423.58 0,-117.17 74.3,-211.79 166.34,-211.79 91.95,0 166.35,94.62 166.35,211.79 0,467.21 -298.41,847.17 -665.38,847.17z"/>
    <path class="fil1" d="M4467.96 9824.84c-92.04,0 -166.35,-94.72 -166.35,-211.79 0,-116.97 -74.56,-211.79 -166.34,-211.79 -92.03,0 -166.35,-94.72 -166.35,-211.79 0,-117.15 74.32,-211.79 166.35,-211.79 275.11,0 499.03,285.12 499.03,635.37 0,117.07 -74.39,211.79 -166.34,211.79z"/>
    <path class="fil1" d="M4467.96 10459.82c-92.04,0 -166.35,-94.72 -166.35,-211.79l0 -634.98c0,-117.14 74.31,-211.79 166.35,-211.79 91.95,0 166.34,94.65 166.34,211.79l0 634.98c0,117.07 -74.39,211.79 -166.34,211.79z"/>
    <path class="fil1" d="M5466.2 8765.48c-92.03,0 -166.35,-94.72 -166.35,-211.78l0 -1482.96c0,-117.18 74.32,-211.79 166.35,-211.79 92.03,0 166.34,94.61 166.34,211.79l0 1482.96c0,117.06 -74.31,211.78 -166.34,211.78z"/>
    <path class="fil1" d="M5965.23 9400.87c-366.96,0 -665.38,-379.96 -665.38,-847.17 0,-117.17 74.32,-211.79 166.35,-211.79 92.03,0 166.34,94.62 166.34,211.79 0,233.6 149.21,423.58 332.69,423.58 92.03,0 166.34,94.62 166.34,211.79 0,117.08 -74.31,211.8 -166.34,211.8z"/>
    <path class="fil1" d="M5632.54 9824.84c-92.03,0 -166.34,-94.72 -166.34,-211.79 0,-350.25 223.94,-635.37 499.03,-635.37 92.03,0 166.34,94.64 166.34,211.79 0,117.07 -74.31,211.79 -166.34,211.79 -91.78,0 -166.34,94.82 -166.34,211.79 0,117.07 -74.32,211.79 -166.35,211.79z"/>
    <path class="fil1" d="M5632.54 10459.82c-92.03,0 -166.34,-94.72 -166.34,-211.79l0 -634.98c0,-117.14 74.31,-211.79 166.34,-211.79 92.03,0 166.35,94.65 166.35,211.79l0 634.98c0,117.07 -74.32,211.79 -166.35,211.79z"/>
    <path class="fil1" d="M6131.57 9401.26l-166.34 0c-92.03,0 -166.34,-94.72 -166.34,-211.79 0,-117.15 74.31,-211.79 166.34,-211.79l166.34 0c92.03,0 166.35,94.64 166.35,211.79 0,117.07 -74.32,211.79 -166.35,211.79z"/>
    <path class="fil1" d="M4135.27 9400.87l-166.18 0c-92.04,0 -166.36,-94.72 -166.36,-211.8 0,-117.17 74.32,-211.79 166.36,-211.79l166.18 0c91.95,0 166.34,94.62 166.34,211.79 0,117.08 -74.39,211.8 -166.34,211.8z"/>
    <path class="fil1" d="M12286.52 10460.65l-2162.82 0c-92.03,0 -166.35,-94.62 -166.35,-211.8l0 -3178.11c0,-117.18 74.32,-211.79 166.35,-211.79l2162.82 0c92.03,0 166.34,94.61 166.34,211.79l0 3178.11c0,117.18 -74.31,211.8 -166.34,211.8zm-1996.48 -423.6l1830.14 0 0 -2754.52 -1830.14 0 0 2754.52z"/>
    <path class="fil1" d="M10789.08 8765.48c-92.02,0 -166.35,-94.72 -166.35,-211.78l0 -1482.96c0,-117.18 74.33,-211.79 166.35,-211.79 91.94,0 166.35,94.61 166.35,211.79l0 1482.96c0,117.06 -74.41,211.78 -166.35,211.78z"/>
    <path class="fil1" d="M10290.04 9400.87c-92.03,0 -166.34,-94.72 -166.34,-211.8 0,-117.17 74.31,-211.79 166.34,-211.79 183.49,0 332.69,-189.98 332.69,-423.58 0,-117.17 74.33,-211.79 166.35,-211.79 91.94,0 166.35,94.62 166.35,211.79 0,467.21 -298.4,847.17 -665.39,847.17z"/>
    <path class="fil1" d="M10622.73 9824.84c-92.02,0 -166.34,-94.72 -166.34,-211.79 0,-116.97 -74.57,-211.79 -166.35,-211.79 -92.03,0 -166.34,-94.72 -166.34,-211.79 0,-117.15 74.31,-211.79 166.34,-211.79 275.12,0 499.04,285.12 499.04,635.37 0,117.07 -74.4,211.79 -166.35,211.79z"/>
    <path class="fil1" d="M10622.73 10459.82c-92.02,0 -166.34,-94.72 -166.34,-211.79l0 -634.98c0,-117.14 74.32,-211.79 166.34,-211.79 91.95,0 166.35,94.65 166.35,211.79l0 634.98c0,117.07 -74.4,211.79 -166.35,211.79z"/>
    <path class="fil1" d="M11620.98 8765.48c-92.03,0 -166.35,-94.72 -166.35,-211.78l0 -1482.96c0,-117.18 74.32,-211.79 166.35,-211.79 92.03,0 166.34,94.61 166.34,211.79l0 1482.96c0,117.06 -74.31,211.78 -166.34,211.78z"/>
    <path class="fil1" d="M12120.01 9400.87c-366.96,0 -665.38,-379.96 -665.38,-847.17 0,-117.17 74.32,-211.79 166.35,-211.79 92.03,0 166.34,94.62 166.34,211.79 0,233.6 149.21,423.58 332.69,423.58 92.03,0 166.35,94.62 166.35,211.79 0,117.08 -74.32,211.8 -166.35,211.8z"/>
    <path class="fil1" d="M11787.32 9824.84c-92.03,0 -166.34,-94.72 -166.34,-211.79 0,-350.25 223.94,-635.37 499.03,-635.37 92.03,0 166.35,94.64 166.35,211.79 0,117.07 -74.32,211.79 -166.35,211.79 -91.78,0 -166.35,94.82 -166.35,211.79 0,117.07 -74.31,211.79 -166.34,211.79z"/>
    <path class="fil1" d="M11787.32 10459.82c-92.03,0 -166.34,-94.72 -166.34,-211.79l0 -634.98c0,-117.14 74.31,-211.79 166.34,-211.79 92.03,0 166.34,94.65 166.34,211.79l0 634.98c0,117.07 -74.31,211.79 -166.34,211.79z"/>
    <path class="fil1" d="M12286.36 9401.26l-166.35 0c-92.03,0 -166.35,-94.72 -166.35,-211.79 0,-117.15 74.32,-211.79 166.35,-211.79l166.35 0c92.03,0 166.35,94.64 166.35,211.79 0,117.07 -74.32,211.79 -166.35,211.79z"/>
    <path class="fil1" d="M10290.04 9400.87l-166.17 0c-92.03,0 -166.34,-94.72 -166.34,-211.8 0,-117.17 74.31,-211.79 166.34,-211.79l166.17 0c91.96,0 166.35,94.62 166.35,211.79 0,117.08 -74.39,211.8 -166.35,211.8z"/>
   </g>
  </g>
 </g>
</svg>
