<?xml version="1.0" encoding="UTF-8"?>
<!DOCTYPE svg PUBLIC "-//W3C//DTD SVG 1.1//EN" "http://www.w3.org/Graphics/SVG/1.1/DTD/svg11.dtd">
<!-- Creator: CorelDRAW 2021 (64-Bit) -->
<svg xmlns="http://www.w3.org/2000/svg" xml:space="preserve" width="162.56mm" height="162.56mm" version="1.1" style="shape-rendering:geometricPrecision; text-rendering:geometricPrecision; image-rendering:optimizeQuality; fill-rule:evenodd; clip-rule:evenodd"
viewBox="0 0 16255.98 16255.98"
 xmlns:xlink="http://www.w3.org/1999/xlink"
 xmlns:xodm="http://www.corel.com/coreldraw/odm/2003">
 <defs>
  <style type="text/css">
   <![CDATA[
    .fil0 {fill:#8BC5F5}
    .fil1 {fill:white;fill-rule:nonzero}
   ]]>
  </style>
 </defs>
 <g id="Layer_x0020_1">
  <metadata id="CorelCorpID_0Corel-Layer"/>
  <circle class="fil0" cx="8128" cy="8127.98" r="8128"/>
  <g id="_2084275354944">
   <g>
    <g>
     <path class="fil1" d="M6834.78 6854.85c-96.11,-105.19 -232.95,-166.8 -375.41,-169.01 -286.54,-3.68 -523.59,224.77 -528.45,511.08 -1.55,92.3 72,168.37 164.28,169.94 0.98,0.03 1.92,0.03 2.89,0.03 90.99,0 165.5,-72.98 167.03,-164.32 1.73,-102.26 85.77,-184.29 189.01,-182.52 51.54,0.8 99.06,22.19 133.85,60.25 62.26,68.16 167.99,72.93 236.12,10.67 68.15,-62.25 72.94,-167.98 10.68,-236.12z"/>
    </g>
   </g>
   <g>
    <g>
     <path class="fil1" d="M7723.92 7399.51c-51.23,-120.41 -150.95,-215.45 -273.66,-260.76 -246.76,-91.03 -521.86,35.48 -613.28,281.95 -32.11,86.55 12.03,182.73 98.56,214.83 19.17,7.11 38.79,10.47 58.09,10.47 67.9,0 131.73,-41.68 156.72,-109.05 27.45,-74.03 110.18,-111.91 184.17,-84.61 37.2,13.73 66.25,41.42 81.78,77.97 36.12,84.92 134.3,124.55 219.19,88.4 84.97,-36.12 124.52,-134.25 88.43,-219.2z"/>
    </g>
   </g>
   <g>
    <g>
     <path class="fil1" d="M8801.06 5919.36c-65.33,-65.22 -171.16,-65.1 -236.34,0.25l-157.54 157.86c-65.21,65.33 -65.1,171.16 0.24,236.34 32.61,32.55 75.32,48.82 118.04,48.82 42.83,0 85.65,-16.36 118.31,-49.07l157.54 -157.86c65.2,-65.34 65.08,-171.16 -0.25,-236.34z"/>
    </g>
   </g>
   <g>
    <g>
     <path class="fil1" d="M7761.31 8076.91l-222.74 0c-92.32,0 -167.12,74.82 -167.12,167.11 0,92.3 74.8,167.12 167.12,167.12l222.74 0.01c92.32,0 167.12,-74.82 167.12,-167.11 0,-92.31 -74.8,-167.13 -167.12,-167.13z"/>
    </g>
   </g>
   <g>
    <g>
     <path class="fil1" d="M9469.19 8076.91l-222.77 0c-92.32,0 -167.12,74.82 -167.12,167.11 0,92.3 74.83,167.12 167.12,167.12l222.77 0.01c92.29,0 167.11,-74.82 167.11,-167.11 0,-92.31 -74.82,-167.13 -167.11,-167.13z"/>
    </g>
   </g>
   <g>
    <g>
     <path class="fil1" d="M13827.15 11090.32l-43.52 -234.91c-27.73,-150.1 -158.8,-259.03 -311.65,-259.03 -19.19,0 -38.53,1.76 -57.55,5.25l-885.99 162.75 401.23 -268.22c105.15,-70.28 158.29,-196 135.37,-320.72 -6.37,-34.16 -18.31,-66.94 -35.61,-97.62l-121.42 -215.01c-41.6,-73.86 -112.56,-128.75 -194.45,-150.5 -40.11,-10.69 -82.05,-13.07 -122.96,-7.76 44.68,-246.58 67.71,-498.43 67.71,-754.8 0,-113.75 -68.41,-211.65 -166.12,-255.12 127.68,-303.68 136.4,-651.34 10.19,-969.71 -10.24,-25.89 -25.43,-49 -45.11,-68.7 -19.51,-19.52 -42.36,-34.61 -68.27,-45.02 -151.24,-60.23 -310.18,-90.76 -472.44,-90.76 -20.74,0 -41.39,0.54 -61.98,1.51 -23.16,-466.45 -409.21,-838.83 -880.5,-838.83 -62.06,0 -122.57,6.6 -181.03,18.89 40.6,-242.89 16.7,-496.99 -77.9,-735.55 -10.16,-26.23 -25.43,-49.76 -46.17,-70.83 -19.96,-19.97 -43.38,-35.36 -69.37,-45.68 -162.91,-64.9 -334.14,-97.79 -508.93,-97.79 -263.3,0 -515.16,74.03 -732.6,211.65 -79.44,-230.11 -210.44,-446.15 -393.48,-629.6 -53.61,-53.7 -124.92,-83.3 -200.79,-83.3 -75.88,0 -147.18,29.6 -200.86,83.34l-809.16 811.02c-149.74,-133.57 -346.79,-213.41 -560.67,-213.41 -48.54,0 -97.54,4.25 -145.65,12.64 -174.31,30.34 -334.73,115.67 -457.72,240.63 -157.7,-76.1 -338.35,-102.06 -511.96,-71.84 -38.19,6.64 -75.25,15.99 -111.22,27.41l0 -624.95c0,-430.37 -345.9,-781.14 -773.78,-788.54l0.03 -354.42c130.98,-22.66 230.99,-136.83 230.99,-274.17l0 -803.07c0,-153.58 -124.95,-278.53 -278.54,-278.53l-1359.08 0c-153.59,0 -278.54,124.95 -278.54,278.53l0 803.07c0,137.34 100.01,251.51 230.99,274.17l0 354.38c-427.88,7.38 -773.77,358.13 -773.77,788.54l0 4877.7c-333.67,301.35 -541.39,721.8 -541.39,1186.76 0,914.63 802.75,1658.76 1789.5,1658.76l6689.12 -1.95c228.32,-0.09 443.04,-100.43 589.08,-275.27 142.25,-170.2 202.72,-391.27 167.88,-609.3l1336.04 240.1c18.49,3.32 37.43,5.02 56.22,5.02 66.62,0 130.47,-20.45 184.52,-59.1 69.5,-49.64 116.54,-126.5 129.09,-210.8l36.18 -242.81c5.22,-34.79 4.63,-69.81 -1.72,-104.15 -23,-124.16 -117.55,-222.68 -240.88,-250.93l-470.91 -108.02 885.11 -162.6c83.47,-15.34 155.89,-62.2 203.94,-131.96 47.96,-69.6 65.88,-153.69 50.5,-236.84zm-1910.56 -3235.67c100.6,0 199.52,15.94 294.63,47.33 85,258.8 53.17,537.93 -79.9,768.52l-450.22 0 143.66 -144c65.2,-65.32 65.07,-171.16 -0.29,-236.35 -65.35,-65.2 -171.18,-65.09 -236.34,0.26l-76.01 76.19c-35.63,-117.32 -97.84,-222.37 -179.62,-308.53 165.88,-131.71 369.5,-203.42 584.09,-203.42zm-942.49 -837.31c301.82,0 547.37,246.27 547.37,548.99 0,5.62 -0.27,11.17 -0.43,16.73 -176.17,57.3 -338.55,153 -477.03,282.98 -22.04,-8.36 -44.4,-16.1 -67.34,-22.46 -48.89,-264.1 -226.87,-475.78 -461.98,-574.65 97.57,-151.19 266.89,-251.59 459.41,-251.59zm-883.42 -930.95c113.52,0 225.06,18.36 332.55,54.69 86.39,256.87 68.75,532.8 -41.33,771.81 -90.5,82.43 -163.91,183.37 -214.1,296.83 -29.83,1.74 -59.68,5.05 -89.16,10.16 -130.96,22.8 -253.07,79.62 -355.26,162.03 -34.85,-63.73 -77.52,-122.54 -126.42,-175.48l383.25 -384.12c65.21,-65.33 65.07,-171.16 -0.29,-236.34 -65.33,-65.2 -171.16,-65.09 -236.35,0.26l-418.88 419.84c-79.7,-37.68 -165.86,-63.88 -256.39,-76.14 39.1,-199.44 135.89,-387.35 285.57,-537.4 196.98,-197.42 458.65,-306.14 736.81,-306.14zm-1280.61 2584.11l-144.87 0c-24.4,-62.08 -84.72,-106.09 -155.46,-106.09 -70.75,0 -131.08,44.03 -155.47,106.09l-170.42 0c39.58,-64.44 31.58,-149.83 -24.3,-205.58 -65.32,-65.21 -171.16,-65.09 -236.35,0.25l-157.52 157.86c-14.15,14.17 -25.03,30.33 -33.03,47.49l-340.15 -0.02c-127.39,-195.49 -205.13,-426.23 -214.34,-674.47l2651.39 0c-9.21,248.23 -86.95,478.98 -214.34,674.47l-353.98 0c-7.97,-17.15 -18.89,-33.34 -33.03,-47.51l-157.49 -157.86c-65.22,-65.32 -171,-65.49 -236.34,-0.26 -55.9,55.76 -63.9,141.16 -24.3,205.63zm-388.68 -1008.71c62.99,-233.45 275.95,-405.73 528.33,-405.73 252.39,0 465.35,172.3 528.35,405.73l-1056.68 0zm341.74 -2054.98c158.97,171.81 264.08,375.78 315.62,590.19 -85.31,92.71 -156.2,195.18 -212.11,304.21 -25.38,-15.56 -55.12,-24.66 -87.06,-24.66l-222.69 0c-92.3,0 -167.12,74.82 -167.12,167.11 0,92.3 74.82,167.12 167.12,167.12l195.35 0.01c-10.98,46.16 -19.51,92.86 -25.71,139.92 -66.37,17.43 -129.74,42.25 -189.06,73.85 -111.39,-192.23 -295.85,-335.49 -514.4,-392.96 -0.06,-0.48 -0.16,-0.94 -0.25,-1.41 -13.1,-75.62 -35.96,-147.38 -67.14,-214.07l807.45 -809.31zm-3021.11 1508.04c-9.81,-27.41 -17.23,-55.54 -22.11,-83.75 -47.93,-276.33 138.36,-540.34 415.18,-588.54 29.19,-5.08 58.85,-7.66 88.12,-7.66 110.1,0 215.32,35.12 304.26,101.54 36.79,27.5 83.32,38.61 128.6,30.76 45.28,-7.86 85.32,-34 110.72,-72.3 78.45,-118.34 198.5,-196.88 337.99,-221.16 29.26,-5.1 58.98,-7.66 88.33,-7.66 247.6,0 458.05,177.15 500.34,421.27 4.85,27.96 7.35,57.1 7.4,86.64 0.16,86.5 66.31,158.61 152.51,166.18 186.84,16.42 345.9,134.02 419.64,299.66 -98.72,118.48 -167.15,263.14 -193.14,421.95l-953.07 0.01c-118.51,0 -220.18,73.16 -262.58,176.69 -209.69,-142.81 -456.81,-219.76 -715.78,-219.76 -162.24,0 -321.19,30.56 -472.54,90.81 -25.66,10.26 -48.62,25.38 -68.18,44.94 -19.83,19.83 -35.05,43.07 -45.03,68.56 -38.47,97 -64.11,196.72 -77.97,297.06 -59.91,-68.19 -102.1,-152.97 -118.6,-248.12 -39.3,-226.76 79.39,-452.53 288.57,-549.05 78.61,-36.29 116.51,-126.58 87.34,-208.07zm498.21 1509.95l45.59 45.7 -401.38 0c-90.11,-209.06 -103.8,-447.03 -30.65,-670.2 95.24,-31.45 194.11,-47.35 294.64,-47.35 251.82,0 488.71,98.42 666.99,277.11 23.71,23.78 45.8,48.69 66.54,74.43 28.33,128.21 71.85,250.71 127.91,366l-251.86 -0.01 -281.15 -281.8c-65.22,-65.31 -171.05,-65.49 -236.34,-0.26 -65.36,65.22 -65.48,171.05 -0.29,236.38zm-711.72 45.7l-595.79 0c26.56,-161.89 123.94,-299.88 259.11,-381.26 80.02,107.2 184.46,193.88 304.79,252.6 8.51,43.36 18.97,86.35 31.89,128.66zm-1686.61 -5319.24l1247.66 0 0 691.65 -1247.66 0 0 -691.65zm1016.67 1025.89l0 349.7 -785.67 0 0 -349.7 785.67 0zm-1559.42 1816.33l1085.25 0c92.32,0 167.12,-74.83 167.12,-167.12 0,-92.29 -74.8,-167.12 -167.12,-167.12l-1085.25 -0.01 0 -343.52c0,-250.69 203.31,-454.63 453.21,-454.63l1426.75 0.02c249.92,0 453.24,203.93 453.24,454.62l0 343.52 -312.05 -0.01c-92.32,0 -167.12,74.83 -167.12,167.12 0,92.29 74.8,167.12 167.12,167.12l312.05 0.01 0 148.34c-191.49,187.73 -290.93,463.05 -241.82,746.24 0.09,0.56 0.2,1.14 0.29,1.72 -268.11,183.95 -410.97,510.98 -354.08,839.27 3.32,19.17 7.49,38.02 12.03,56.67 -83.5,46.04 -158.48,105.5 -222.74,175.06l-1526.88 0 0 -1967.3zm-0.03 2301.52l0 0 1332.85 0c-17.74,56.33 -30.25,114.96 -36.37,175.5l-28.16 0c-153.82,0 -278.99,125.26 -278.99,279.21 0,265.38 24.67,525.89 72.47,780.76 -48.02,-3.86 -97.27,-5.93 -147.35,-5.93 -202.11,0 -394.68,32.07 -542.17,90.31 -225.62,89.09 -287.98,215.59 -301.61,303.12 -23.9,11.9 -47.4,24.47 -70.65,37.32l-0.02 -1660.29zm2116.26 2053.07c60.19,48.14 96.98,89.08 118.31,118.62 -2.01,0.02 -4.1,0.05 -6.21,0.05 -94.59,0 -264.55,-38.13 -457.81,-145.11 -71.96,-39.87 -138.25,-84.9 -191.72,-130.2 -62.35,-52.83 -153.78,-52.79 -216.08,0.02 -53.48,45.35 -119.76,90.36 -191.64,130.14 -193.3,107.03 -363.25,145.16 -457.83,145.16 -2.16,0 -4.23,-0.03 -6.26,-0.05 21.29,-29.52 58.09,-70.49 118.3,-118.66 52.62,-42.11 74.79,-111.73 56.23,-176.5 -18.58,-64.79 -74.26,-112.11 -141.21,-119.95 -163.09,-19.12 -266.22,-60.64 -314.51,-90.85 60.5,-37.68 213.45,-101.93 488.69,-101.93 227.96,0 394.56,47.94 474.48,92.81 50.83,28.52 112.79,28.52 163.63,0.02 79.95,-44.88 246.58,-92.8 474.54,-92.8 275.26,0 428.18,64.27 488.66,101.92 -48.26,30.25 -151.41,71.74 -314.55,90.85 -66.96,7.86 -122.65,55.15 -141.2,119.97 -18.65,64.78 3.52,134.39 56.18,176.49zm-334.32 2034.13l5.75 30.97c19.88,107.34 61.79,205.85 120.36,291.52l-994.19 0c-802.41,0 -1455.25,-594.16 -1455.25,-1324.52 0,-499.12 305.01,-934.45 754.15,-1160.17 51.58,38.51 115.9,71.71 192.2,98.5 -30.26,51.68 -51.34,107.25 -56.31,165.2 -6.6,77.06 16.98,150.24 66.45,206.08 65.36,73.8 165.67,111.22 298.18,111.22 176.58,0 408.25,-69.9 619.72,-186.99 48.69,-26.93 94.73,-55.39 137.83,-85.11 43.07,29.7 89.11,58.15 137.82,85.14 211.46,117.05 443.15,186.93 619.72,186.96l0 0c132.46,0 232.77,-37.42 298.1,-111.2 49.5,-55.85 73.09,-129.03 66.47,-206.1 -4.97,-57.95 -26.05,-113.52 -56.31,-165.2 76.3,-26.81 140.63,-60.02 192.21,-98.5 356.19,179.02 621.61,489.9 716.25,859.86l-1182.02 449.02c-345.98,131.49 -548.33,490.33 -481.13,853.32zm6153.6 165.21c-82.4,98.67 -203.69,155.27 -332.72,155.32l-175.41 0.06 -109.59 -591.73c-16.82,-90.75 -103.97,-150.77 -194.78,-133.9 -90.73,16.81 -150.7,104 -133.9,194.75l98.35 530.99 -575.04 0.23 -74.09 -400.14c-16.82,-90.76 -104,-150.7 -194.78,-133.91 -90.73,16.81 -150.7,104 -133.9,194.76l62.83 339.41 -1337.54 0.51 -100.68 -543.44c-16.84,-90.75 -103.97,-150.69 -194.78,-133.88 -90.76,16.81 -150.7,104.03 -133.9,194.78l89.42 482.68 -1952.99 0.76c-0.05,0 -0.08,0 -0.13,0 -208.84,0 -387.82,-148.18 -425.66,-352.43l-5.75 -30.96c-37.77,-204.03 76.27,-405.85 271.19,-479.92l656.84 -249.53 48.94 264.1c14.91,80.46 85.14,136.71 164.11,136.71 10.12,0 20.36,-0.93 30.65,-2.83 90.74,-16.82 150.68,-104.02 133.86,-194.78l-60.02 -323.84 975 -370.4c86.28,-32.77 129.66,-129.31 96.88,-215.59 -32.77,-86.3 -129.42,-129.66 -215.56,-96.88l-453.71 172.36c-127.27,-450.64 -454.26,-827.07 -887.86,-1042.73 -13.62,-87.52 -75.99,-214.03 -301.59,-303.11 -147.49,-58.25 -340.06,-90.31 -542.16,-90.31 -139.1,0 -271.93,15.36 -389.18,43.32l0 -100.94c0,-92.3 -74.8,-167.12 -167.11,-167.12 -39.02,0 -74.8,13.46 -103.26,35.87 -26.37,-174.32 -41.12,-351.38 -43.56,-530.94l5443.53 -0.01c92.32,0 167.12,-74.82 167.12,-167.12 0,-92.29 -74.8,-167.11 -167.12,-167.11l-68.38 -0.02c106.43,-219.17 166.54,-464.92 166.54,-724.63 0,-147.45 -112.82,-268.92 -256.59,-282.7 62.6,-59.03 140.72,-98.83 227.81,-114.01 25.51,-4.43 51.4,-6.68 76.98,-6.68 215.77,0 399.12,154.35 435.95,366.97 4.25,24.62 6.44,50.02 6.46,75.54 0.11,86.55 66.29,158.69 152.51,166.28 199.72,17.54 363.13,167.74 397.37,365.27 9.09,52.51 7.96,104.35 -1.16,153.95l-179.31 0.01c-92.32,0 -167.12,74.83 -167.12,167.12 0,92.29 74.8,167.12 167.12,167.12l1298.94 0.01c-4.14,306.58 -43.63,606.04 -117.27,896.59l-905.73 534.67c-55.39,-192.8 -184.15,-356.33 -361.54,-455.63 -198.98,-111.34 -435.42,-128.75 -648.66,-47.75l-1865.35 708.65c-86.3,32.78 -129.66,129.31 -96.89,215.59 32.78,86.31 129.4,129.63 215.57,96.89l245.74 -93.34 76.29 411.94c14.91,80.46 85.15,136.72 164.14,136.72 10.09,0 20.35,-0.93 30.64,-2.83 90.74,-16.81 150.7,-103.99 133.91,-194.75l-87.38 -471.74 1301.98 -494.61c120.65,-45.82 254.3,-35.99 366.77,26.96 112.27,62.82 190.02,171.11 213.38,297.05l338.1 1825.33c23.3,125.89 -10.5,254.53 -92.77,352.97zm596.3 -1308.16c-77.97,14.33 -135.13,81.45 -136.89,160.71 -1.73,79.26 52.46,148.82 129.72,166.54l1244.28 285.4 -31.08 208.56 -1442.47 -259.23 -225.49 -1217.42 1256.42 -741.68 104.67 185.34 -1059.74 708.41c-65.89,44.05 -91.78,128.32 -61.97,201.78 29.79,73.44 107.11,115.87 185.06,101.54l1664.69 -305.79 37.08 200.11 -1664.28 305.73z"/>
    </g>
   </g>
   <g>
   </g>
   <g>
   </g>
   <g>
   </g>
   <g>
   </g>
   <g>
   </g>
   <g>
   </g>
   <g>
   </g>
   <g>
   </g>
   <g>
   </g>
   <g>
   </g>
   <g>
   </g>
   <g>
   </g>
   <g>
   </g>
   <g>
   </g>
   <g>
   </g>
  </g>
 </g>
</svg>
