<?xml version="1.0" encoding="UTF-8"?>
<!DOCTYPE svg PUBLIC "-//W3C//DTD SVG 1.1//EN" "http://www.w3.org/Graphics/SVG/1.1/DTD/svg11.dtd">
<!-- Creator: CorelDRAW 2021 (64-Bit) -->
<svg xmlns="http://www.w3.org/2000/svg" xml:space="preserve" width="162.56mm" height="162.56mm" version="1.1" style="shape-rendering:geometricPrecision; text-rendering:geometricPrecision; image-rendering:optimizeQuality; fill-rule:evenodd; clip-rule:evenodd"
viewBox="0 0 16255.98 16255.98"
 xmlns:xlink="http://www.w3.org/1999/xlink"
 xmlns:xodm="http://www.corel.com/coreldraw/odm/2003">
 <defs>
  <style type="text/css">
   <![CDATA[
    .fil2 {fill:none}
    .fil0 {fill:#12357D}
    .fil1 {fill:#8BC5F5}
   ]]>
  </style>
   <clipPath id="id0">
    <path d="M8127.98 -0.02c4489.07,0 8128.01,3638.94 8128.01,8128.01 0,4489.07 -3638.94,8128 -8128.01,8128 -4489.06,0 -8128,-3638.93 -8128,-8128 0,-4489.07 3638.94,-8128.01 8128,-8128.01z"/>
   </clipPath>
 </defs>
 <g id="Layer_x0020_1">
  <metadata id="CorelCorpID_0Corel-Layer"/>
  <path class="fil0" d="M8127.98 -0.02c4489.07,0 8128.01,3638.94 8128.01,8128.01 0,4489.07 -3638.94,8128 -8128.01,8128 -4489.06,0 -8128,-3638.93 -8128,-8128 0,-4489.07 3638.94,-8128.01 8128,-8128.01z"/>
  <g style="clip-path:url(#id0)">
   <g id="_2084417938880">
    <g>
     <path id="_1" class="fil1" d="M3742.5 7746.89c0,689.28 46.85,1123.21 306.82,1756.81 46.08,114.05 89.47,180.48 145.54,284.17 48,89.08 218.88,319.87 294.15,377.09 101.76,78.72 265.34,235.01 422.78,247.68l0 1118.6c-226.56,0 -925.06,-35.71 -1066.76,51.07 -72.19,44.16 -111.36,114.44 -120.19,187.78l0 66.05c14.21,118.66 104.83,228.1 258.05,228.1l8290.24 0c152.84,0 243.84,-108.29 258.05,-226.95l0 -67.2c-8.45,-69.12 -44.54,-136.32 -109.44,-181.25 -112.13,-75.65 -340.99,-57.6 -492.29,-57.6l0 -2425.36c91.01,60.67 173.57,206.59 326.4,206.59 140.16,0 257.67,-109.82 257.67,-275.33 0,-172.8 -154.76,-241.54 -287.62,-365.19 -44.16,-41.09 -64.13,-69.89 -114.43,-109.05l-237.7 -209.67c-113.28,-114.05 -196.99,-120.96 -203.91,-243.07 -11.52,-217.73 15.75,-1244.17 -4.6,-1337.49 -39.17,-173.95 -308.36,-299.13 -469.26,-68.35 -59.13,84.48 -40.7,172.03 -40.7,303.36 0,234.63 0,470.02 0,705.42 -49.54,-33.8 -70.27,-68.36 -117.89,-105.99l-1751.05 -1551.37c-182.41,-150.15 -291.08,-76.42 -416.26,25.34l-1442.32 1275.28c-267.65,224.26 -828.29,766.47 -1064.46,948.87l-535.68 478.08c-90.62,91.4 -158.98,97.16 -158.98,271.11 0,145.15 121.73,258.05 257.67,258.05 152.83,0 235.78,-145.92 327.17,-206.59l0 2425.36 -808.71 0 0 -1118.6c96,-7.3 242.31,-109.06 309.89,-154.37l0 -464.26c-268.03,-62.21 -484.23,-261.89 -561.03,-522.63 -154.75,-524.55 188.16,-768.39 513.8,-1055.62l872.84 -778.38c-56.07,-671.62 -683.15,-1919.63 -1108.24,-2503.7 -30.72,-42.62 -78.33,-119.42 -108.29,-149.37 -108.67,-109.06 -265.73,-96.77 -371.33,-0.77 -90.62,83.33 -463.49,709.64 -544.13,848.64 -34.94,60.29 -55.68,117.89 -94.46,181.25 -283.4,473.86 -611.34,1430.03 -611.34,1933.46zm6157.11 2615.06l739.59 0 0 -739.97 -739.59 0 0 739.97z"/>
     <path class="fil1" d="M7010.06 7041.9c58.33,-39.06 72.59,-47.04 124.61,-98.97l722.33 -636.46c52.17,-46.07 65.64,-67.85 126.18,-114.62 316.16,-244.18 671.18,-732.32 1090.86,-732.32 415.56,0 545.59,248.49 739.58,378.4 0,-356.75 24.66,-756.09 -44.71,-1056.08 -74.92,-324.08 -184.28,-539.3 -353.15,-764.83 -40.27,-53.77 -78.14,-98 -123.19,-152 -51.1,-61.22 -86.08,-81.09 -144.58,-130.62 -345.94,-292.78 -741.41,-450.8 -1142.67,-476.44l-234.92 0c-397.19,25.59 -791.72,180.23 -1141.34,461.79 -199.1,160.37 -422.26,469.11 -520.87,717.5 -36.49,91.86 -84.61,206.32 -104.76,310.63 -15.44,80 53.67,151.96 123.9,270.01 206.07,346.38 256.98,430.46 441.27,797.08 110.41,219.61 436.59,1008.45 441.46,1226.93z"/>
     <path class="fil1" d="M10243.62 4358.75c0,352.87 113.87,623.24 313.74,821.43 576.51,571.7 1485.17,433.15 1847.95,-293.73 103.69,-207.78 108.67,-336.64 108.67,-562.11 0,-538.89 -527.5,-1066.38 -1066.39,-1066.38 -373.22,0 -615.88,75.47 -881.57,339.6 -163.82,162.86 -322.4,440.61 -322.4,761.19z"/>
    </g>
   </g>
  </g>
  <path class="fil2" d="M8127.98 -0.02c4489.07,0 8128.01,3638.94 8128.01,8128.01 0,4489.07 -3638.94,8128 -8128.01,8128 -4489.06,0 -8128,-3638.93 -8128,-8128 0,-4489.07 3638.94,-8128.01 8128,-8128.01z"/>
 </g>
</svg>
