<?xml version="1.0" encoding="UTF-8"?>
<!DOCTYPE svg PUBLIC "-//W3C//DTD SVG 1.1//EN" "http://www.w3.org/Graphics/SVG/1.1/DTD/svg11.dtd">
<!-- Creator: CorelDRAW 2021 (64-Bit) -->
<svg xmlns="http://www.w3.org/2000/svg" xml:space="preserve" width="162.56mm" height="162.56mm" version="1.1" style="shape-rendering:geometricPrecision; text-rendering:geometricPrecision; image-rendering:optimizeQuality; fill-rule:evenodd; clip-rule:evenodd"
viewBox="0 0 16255.98 16255.98"
 xmlns:xlink="http://www.w3.org/1999/xlink"
 xmlns:xodm="http://www.corel.com/coreldraw/odm/2003">
 <defs>
  <style type="text/css">
   <![CDATA[
    .fil3 {fill:none}
    .fil0 {fill:#12357D}
    .fil2 {fill:#8BC5F5}
    .fil1 {fill:#8BC5F5;fill-rule:nonzero}
   ]]>
  </style>
   <clipPath id="id0">
    <path d="M8127.99 -0.01c4489.07,0 8128,3638.93 8128,8128 0,4489.07 -3638.93,8128 -8128,8128 -4489.07,0 -8128,-3638.93 -8128,-8128 0,-4489.07 3638.93,-8128 8128,-8128z"/>
   </clipPath>
 </defs>
 <g id="Layer_x0020_1">
  <metadata id="CorelCorpID_0Corel-Layer"/>
  <path class="fil0" d="M8127.99 -0.01c4489.07,0 8128,3638.93 8128,8128 0,4489.07 -3638.93,8128 -8128,8128 -4489.07,0 -8128,-3638.93 -8128,-8128 0,-4489.07 3638.93,-8128 8128,-8128z"/>
  <g style="clip-path:url(#id0)">
   <g id="_2084416179056">
    <g>
     <path id="_1" class="fil1" d="M13915.82 7572.81l-5008.71 -4922.65c-429.53,-422.23 -1128.39,-422.23 -1557.81,0l-5008.72 4922.65c-135.88,133.77 -137.81,352.26 -4.17,488.14 133.62,135.92 352.11,137.98 488.14,4.33l389.74 -383.15 0 3930.18c0,828.4 673.92,1502.3 1502.32,1502.3l6823.2 0c828.39,0 1502.31,-673.9 1502.31,-1502.3l0 -3930.18 389.74 383.15c67.25,66.02 154.61,99.01 241.99,99.01 89.28,0 178.55,-34.52 246.15,-103.34 133.65,-135.88 131.71,-354.37 -4.18,-488.14zm-1564.03 4039.5c0,447.75 -364.35,811.98 -811.98,811.98l-6823.2 0c-447.77,0 -812,-364.23 -812,-811.98l0 -4608.63 3928.65 -3861.18c40.63,-40.04 87.6,-69.99 137.95,-90.02 138.06,-54.89 300.34,-34.39 420.3,61.86 10.92,8.74 21.57,18.1 31.63,28.16l3928.65 3861.18 0 4608.63z"/>
     <path class="fil1" d="M7091.02 6365.93l0 1110.79 -1110.75 0c-190.68,0 -345.16,154.6 -345.16,345.17l0 1377.52c0,190.68 154.48,345.16 345.16,345.16l1110.75 0 0 1110.76c0,190.68 154.61,345.16 345.17,345.16l1377.68 0c190.56,0 345.16,-154.48 345.16,-345.16l0 -1110.76 1110.63 0c190.56,0 345.17,-154.48 345.17,-345.16l0 -1377.52c0,-190.57 -154.61,-345.17 -345.17,-345.17l-1110.63 0 0 -1110.79c0,-190.56 -154.6,-345.16 -345.16,-345.16l-1377.68 0c-190.56,0 -345.17,154.6 -345.17,345.16zm690.33 1455.96l0 -1110.79 687.35 0 0 1110.79c0,190.64 154.48,345.16 345.17,345.16l1110.63 0 0 687.19 -1110.63 0c-190.69,0 -345.17,154.61 -345.17,345.17l0 1110.75 -687.35 0 0 -1110.75c0,-190.56 -154.48,-345.17 -345.16,-345.17l-1110.75 0 0 -687.19 1110.75 0c190.68,0 345.16,-154.52 345.16,-345.16z"/>
    </g>
    <rect class="fil2" x="7473.06" y="6329.16" width="1305.17" height="4392.53"/>
    <rect class="fil2" transform="matrix(1.13001E-12 -42.6667 42.6667 1.13001E-12 5929.38 9178.87)" width="30.59" height="102.95"/>
   </g>
  </g>
  <path class="fil3" d="M8127.99 -0.01c4489.07,0 8128,3638.93 8128,8128 0,4489.07 -3638.93,8128 -8128,8128 -4489.07,0 -8128,-3638.93 -8128,-8128 0,-4489.07 3638.93,-8128 8128,-8128z"/>
 </g>
</svg>
