<?xml version="1.0" encoding="UTF-8"?>
<!DOCTYPE svg PUBLIC "-//W3C//DTD SVG 1.1//EN" "http://www.w3.org/Graphics/SVG/1.1/DTD/svg11.dtd">
<!-- Creator: CorelDRAW 2021 (64-Bit) -->
<svg xmlns="http://www.w3.org/2000/svg" xml:space="preserve" width="162.56mm" height="162.56mm" version="1.1" style="shape-rendering:geometricPrecision; text-rendering:geometricPrecision; image-rendering:optimizeQuality; fill-rule:evenodd; clip-rule:evenodd"
viewBox="0 0 16255.98 16255.98"
 xmlns:xlink="http://www.w3.org/1999/xlink"
 xmlns:xodm="http://www.corel.com/coreldraw/odm/2003">
 <defs>
  <style type="text/css">
   <![CDATA[
    .fil0 {fill:#12357D}
    .fil1 {fill:#8BC5F5;fill-rule:nonzero}
   ]]>
  </style>
 </defs>
 <g id="Layer_x0020_1">
  <metadata id="CorelCorpID_0Corel-Layer"/>
  <g id="_2084516248752">
   <circle class="fil0" cx="8128" cy="8127.99" r="8128"/>
   <g>
    <polygon class="fil1" points="10183.04,2705.81 8463.41,2705.81 8463.41,1840.1 7791.93,1840.1 7791.93,2705.81 6072.3,2705.81 6072.3,3664.17 10183.04,3664.17 "/>
    <path class="fil1" d="M11186.19 12628.62l0 -8292.96 -6117.02 0 0 8292.96 -1523.56 0 0 671.48 9164.12 0 0 -671.48 -1523.54 0zm-3434.82 -7450.92l752.61 0 0 671.48 -752.61 0 0 -671.48zm0 1513.53l752.61 0 0 671.49 -752.61 0 0 -671.49zm0 1513.52l752.61 0 0 671.49 -752.61 0 0 -671.49zm-1889.15 -3027.05l752.52 0 0 671.48 -752.52 0 0 -671.48zm0 1513.53l752.52 0 0 671.49 -752.52 0 0 -671.49zm0 1513.52l752.52 0 0 671.49 -752.52 0 0 -671.49zm4490.45 4423.87l-671.48 0 0 -2159.59 -1217.78 0 0 2159.59 -671.48 0 0 -2159.59 -1217.78 0 0 2159.59 -671.48 0 0 -2831.07 4450 0 0 2831.07zm40.44 -3752.38l-752.51 0 0 -671.49 752.51 0 0 671.49zm0 -1513.52l-752.51 0 0 -671.49 752.51 0 0 671.49zm0 -1513.54l-752.51 0 0 -671.48 752.51 0 0 671.48z"/>
   </g>
  </g>
 </g>
</svg>
