<?xml version="1.0" encoding="UTF-8"?>
<!DOCTYPE svg PUBLIC "-//W3C//DTD SVG 1.1//EN" "http://www.w3.org/Graphics/SVG/1.1/DTD/svg11.dtd">
<!-- Creator: CorelDRAW 2021 (64-Bit) -->
<svg xmlns="http://www.w3.org/2000/svg" xml:space="preserve" width="162.56mm" height="162.56mm" version="1.1" style="shape-rendering:geometricPrecision; text-rendering:geometricPrecision; image-rendering:optimizeQuality; fill-rule:evenodd; clip-rule:evenodd"
viewBox="0 0 16255.98 16255.98"
 xmlns:xlink="http://www.w3.org/1999/xlink"
 xmlns:xodm="http://www.corel.com/coreldraw/odm/2003">
 <defs>
  <style type="text/css">
   <![CDATA[
    .fil0 {fill:#8BC5F5}
    .fil1 {fill:white;fill-rule:nonzero}
   ]]>
  </style>
 </defs>
 <g id="Layer_x0020_1">
  <metadata id="CorelCorpID_0Corel-Layer"/>
  <g id="_2084105009488">
   <circle class="fil0" cx="8127.99" cy="8127.98" r="8128"/>
   <g>
    <path class="fil1" d="M10584.78 12406.77l-5291.39 0c-104.23,0 -188.9,84.68 -188.9,189.02l0 377.91c0,104.35 84.67,189.04 188.9,189.04 104.37,0 189.04,-84.69 189.04,-189.04l0 -189.02 5102.35 0c104.22,0 188.91,-84.54 188.91,-188.89 0,-104.34 -84.58,-189.02 -188.91,-189.02z"/>
    <path class="fil1" d="M6616.31 6548.58c0,104.24 84.65,188.89 188.91,188.89l755.94 0c104.36,0 188.93,-84.65 188.93,-188.89l0 -1133.89c0,-104.35 -84.57,-189.01 -188.93,-189.01l-755.94 0c-104.26,0 -188.91,84.66 -188.91,189.01l0 1133.89zm377.92 -944.87l377.92 0 0 755.85 -377.92 0 0 -755.85z"/>
    <path class="fil1" d="M4915.48 4091.91l-2267.65 0c-104.34,0 -189.03,84.57 -189.03,188.9l0 3779.56c0,104.25 84.69,188.9 189.03,188.9 104.24,0 188.89,-84.65 188.89,-188.9l0 -3590.54 2078.76 0c104.35,0 189.01,-84.65 189.01,-189.02 0,-104.25 -84.66,-188.9 -189.01,-188.9z"/>
    <path class="fil1" d="M11529.65 11083.98c0,104.23 84.66,188.91 189.01,188.91l755.83 0c104.37,0 189.04,-84.68 189.04,-188.91l0 -1133.87c0,-104.36 -84.67,-189.02 -189.04,-189.02l-755.83 0c-104.35,0 -189.01,84.66 -189.01,189.02l0 1133.87zm377.92 -944.86l378.02 0 0 755.86 -378.02 0 0 -755.86z"/>
    <path class="fil1" d="M3403.67 8627.33c-934.04,0 -944.87,2432.11 -944.87,2456.65 0,456.32 325.27,837.91 755.87,925.72l0 964c0,104.35 84.64,189.04 189,189.04 104.34,0 189.01,-84.69 189.01,-189.04l0 -964c430.6,-87.81 755.87,-469.4 755.87,-925.72 0,-24.54 -10.72,-2456.65 -944.88,-2456.65zm0 3023.58c-312.49,0 -566.95,-254.42 -566.95,-566.93 0,-941.51 252.93,-2078.74 566.95,-2078.74 314.12,0 566.94,1137.23 566.94,2078.74 0,312.51 -254.31,566.93 -566.94,566.93z"/>
    <path class="fil1" d="M4537.57 7493.44l-755.97 0c-104.23,0 -188.92,84.65 -188.92,188.91l0 378.02c0,104.25 84.69,188.9 188.92,188.9 104.35,0 189.01,-84.65 189.01,-188.9l0 -189.01 377.94 0 0 944.86c0,104.34 84.64,189.02 189.02,189.02 104.22,0 188.89,-84.68 188.89,-189.02l0 -1133.76c0.11,-104.37 -84.57,-189.02 -188.89,-189.02z"/>
    <path class="fil1" d="M11718.66 6737.47l755.83 0c104.37,0 189.04,-84.65 189.04,-188.89l0 -1133.89c0,-104.35 -84.67,-189.01 -189.04,-189.01l-755.83 0c-104.35,0 -189.01,84.66 -189.01,189.01l0 1133.89c0,104.24 84.66,188.89 189.01,188.89zm188.91 -1133.76l378.02 0 0 755.85 -378.02 0 0 -755.85z"/>
    <path class="fil1" d="M4537.57 5225.68l-755.97 0c-104.23,0 -188.92,84.66 -188.92,189.01l0 1133.89c0,104.24 84.69,188.89 188.92,188.89l755.97 0c104.22,0 188.89,-84.65 188.89,-188.89l0 -1133.89c0.11,-104.35 -84.57,-189.01 -188.89,-189.01zm-189.02 1133.88l-377.94 0 0 -755.85 377.94 0 0 755.85z"/>
    <path class="fil1" d="M8506.03 6548.58c0,104.24 84.68,188.89 189.01,188.89l755.86 0c104.33,0 189.01,-84.65 189.01,-188.89l0 -1133.89c0,-104.35 -84.68,-189.01 -189.01,-189.01l-755.86 0c-104.33,0 -189.01,84.66 -189.01,189.01l0 1133.89zm377.91 -944.87l378.05 0 0 755.85 -378.05 0 0 -755.85z"/>
    <path class="fil1" d="M13608.38 4091.91l-2267.66 0c-104.34,0 -189.01,84.57 -189.01,188.9 0,104.37 84.67,189.02 189.01,189.02l2078.64 0 0 7593.74c-59.24,-21.1 -122.18,-34.72 -188.9,-34.72 -32.66,0 -65.19,2.8 -97.11,8.42 -130.41,-234.86 -378.55,-386.36 -658.86,-386.36 -280.17,0 -528.31,151.5 -658.72,386.36 -31.92,-5.62 -64.44,-8.42 -97.11,-8.42 -312.5,0 -566.95,254.33 -566.95,566.94 0,312.5 254.45,566.95 566.95,566.95l1511.8 0c312.5,0 566.95,-254.45 566.95,-566.95l0 -8314.98c0,-104.33 -84.67,-188.9 -189.03,-188.9zm-377.92 8692.77l-1511.8 0c-104.14,0 -189.01,-84.77 -189.01,-188.89 0,-104.15 84.87,-189.02 189.01,-189.02 36.21,0 70.62,10.38 102.4,30.81 51.79,33.3 116.35,39.37 173.46,16.23 57.08,-23.03 99.26,-72.56 112.99,-132.47 39.9,-172.16 190.96,-292.49 366.98,-292.49 176.17,0 327.13,120.33 367.01,292.49 13.84,59.91 56.03,109.44 113,132.47 56.89,23.14 121.77,17.07 173.57,-16.23 122.94,-79.36 291.29,17.74 291.29,158.21 0,104.12 -84.76,188.89 -188.9,188.89z"/>
    <path class="fil1" d="M8695.04 4469.83l755.86 0c104.33,0 189.01,-84.65 189.01,-189.02l0 -1133.77c0,-104.33 -84.68,-189.01 -189.01,-189.01l-755.86 0c-104.33,0 -189.01,84.68 -189.01,189.01l0 1133.77c0,104.37 84.68,189.02 189.01,189.02zm188.9 -1133.89l378.05 0 0 755.97 -378.05 0 0 -755.97z"/>
    <path class="fil1" d="M8506.03 8816.22c0,104.34 84.68,189.02 189.01,189.02l755.86 0c104.33,0 189.01,-84.68 189.01,-189.02l0 -1133.87c0,-104.26 -84.68,-188.91 -189.01,-188.91l-755.86 0c-104.33,0 -189.01,84.65 -189.01,188.91l0 1133.87zm377.91 -944.86l378.05 0 0 755.97 -378.05 0 0 -755.97z"/>
    <path class="fil1" d="M6805.22 4469.83l755.94 0c104.36,0 188.93,-84.65 188.93,-189.02l0 -1133.77c0,-104.33 -84.57,-189.01 -188.93,-189.01l-755.94 0c-104.26,0 -188.91,84.68 -188.91,189.01l0 1133.77c0,104.37 84.65,189.02 188.91,189.02zm189.01 -1133.89l377.92 0 0 755.97 -377.92 0 0 -755.97z"/>
    <path class="fil1" d="M7993.91 10949.79c-34.05,35.9 -54.81,84.98 -54.81,134.19 0,49.08 20.76,98.31 54.81,134.18 35.91,33.97 84.99,54.84 134.2,54.84 49.09,0 98.19,-20.87 134.18,-54.84 33.97,-35.87 54.84,-85.1 54.84,-134.18 0,-49.21 -20.87,-98.29 -54.84,-134.19 -71.78,-69.96 -196.58,-69.96 -268.38,0z"/>
    <path class="fil1" d="M6616.31 8816.22c0,104.34 84.65,189.02 188.91,189.02l755.94 0c104.36,0 188.93,-84.68 188.93,-189.02l0 -1133.87c0,-104.26 -84.57,-188.91 -188.93,-188.91l-755.94 0c-104.26,0 -188.91,84.65 -188.91,188.91l0 1133.87zm377.92 -944.86l377.92 0 0 755.97 -377.92 0 0 -755.97z"/>
    <path class="fil1" d="M6238.37 9950.11c0,104.22 84.68,188.9 188.9,188.9l566.96 0 0 1700.81c0,104.36 84.65,189.03 189.01,189.03 104.25,0 188.91,-84.67 188.91,-189.03l0 -1700.81 1511.79 0 0 1700.81c0,104.36 84.68,189.03 189.05,189.03 104.22,0 188.89,-84.67 188.89,-189.03l0 -1700.81 566.93 0c104.37,0 189.02,-84.68 189.02,-188.9 0,-104.36 -84.65,-189.02 -189.02,-189.02l-3401.54 0c-104.22,0 -188.9,84.66 -188.9,189.02z"/>
    <path class="fil1" d="M11529.65 8816.22c0,104.34 84.66,189.02 189.01,189.02l755.83 0c104.37,0 189.04,-84.68 189.04,-189.02l0 -1133.87c0,-104.26 -84.67,-188.91 -189.04,-188.91l-755.83 0c-104.35,0 -189.01,84.65 -189.01,188.91l0 1133.87zm377.92 -944.86l378.02 0 0 755.97 -378.02 0 0 -755.97z"/>
    <path class="fil1" d="M10584.78 1824.15l-4913.33 0c-104.37,0 -189.02,84.68 -189.02,189.02l0 9826.65c0,104.36 84.65,189.03 189.02,189.03 104.22,0 188.89,-84.67 188.89,-189.03l0 -9637.76 4535.42 0 0 9637.76c0,104.36 84.66,189.03 189.02,189.03 104.22,0 188.91,-84.67 188.91,-189.03l0 -9826.65c0.11,-104.34 -84.58,-189.02 -188.91,-189.02z"/>
   </g>
  </g>
 </g>
</svg>
