<?xml version="1.0" encoding="UTF-8"?>
<!DOCTYPE svg PUBLIC "-//W3C//DTD SVG 1.1//EN" "http://www.w3.org/Graphics/SVG/1.1/DTD/svg11.dtd">
<!-- Creator: CorelDRAW 2021 (64-Bit) -->
<svg xmlns="http://www.w3.org/2000/svg" xml:space="preserve" width="162.56mm" height="162.56mm" version="1.1" style="shape-rendering:geometricPrecision; text-rendering:geometricPrecision; image-rendering:optimizeQuality; fill-rule:evenodd; clip-rule:evenodd"
viewBox="0 0 16255.98 16255.98"
 xmlns:xlink="http://www.w3.org/1999/xlink"
 xmlns:xodm="http://www.corel.com/coreldraw/odm/2003">
 <defs>
  <style type="text/css">
   <![CDATA[
    .fil0 {fill:#12357D}
    .fil1 {fill:#8BC5F5;fill-rule:nonzero}
   ]]>
  </style>
 </defs>
 <g id="Layer_x0020_1">
  <metadata id="CorelCorpID_0Corel-Layer"/>
  <g id="_2084511213008">
   <circle class="fil0" cx="8127.99" cy="8127.99" r="8128"/>
   <path class="fil1" d="M3414.35 10292.08c-0.22,0.22 -0.66,0.32 -0.99,0.54 -131.12,68.14 -187.95,225.49 -130.68,361.77 57.5,136.6 210.45,205.95 351.12,159.2l3965.87 -1319.54 -741.52 1211.03c-53.87,88 -42.46,201.01 27.87,276.5 70.34,75.49 182.37,94.8 273.99,47.18l777.61 -404.11c22.39,-11.52 42.68,-26.77 60.13,-44.99l2303.77 -2406.58 2843.39 -1483.58c1076.84,-580.55 952.08,-1026.8 888.22,-1149.69 -49.49,-95.24 -160.2,-223.07 -406.2,-290.66 -249.4,-68.47 -586.58,-62.98 -1030.2,16.79 -148.13,26.66 -229.87,24.36 -316.44,22.05 -304.38,-8.34 -510.88,12.07 -1535.92,544.67l-5606.36 2913.51 -2174.19 -1128.4c-82.07,-42.58 -179.62,-42.47 -261.58,0.11l-366.37 190.48c-75.38,39.17 -129.25,110.05 -146.7,193.22 -17.56,83.17 3.18,169.86 56.29,236.02l1509.04 1879.68 -340.15 174.8z"/>
  </g>
 </g>
</svg>
