<?xml version="1.0" encoding="UTF-8"?>
<!DOCTYPE svg PUBLIC "-//W3C//DTD SVG 1.1//EN" "http://www.w3.org/Graphics/SVG/1.1/DTD/svg11.dtd">
<!-- Creator: CorelDRAW 2021 (64-Bit) -->
<svg xmlns="http://www.w3.org/2000/svg" xml:space="preserve" width="162.56mm" height="162.56mm" version="1.1" style="shape-rendering:geometricPrecision; text-rendering:geometricPrecision; image-rendering:optimizeQuality; fill-rule:evenodd; clip-rule:evenodd"
viewBox="0 0 16255.98 16255.98"
 xmlns:xlink="http://www.w3.org/1999/xlink"
 xmlns:xodm="http://www.corel.com/coreldraw/odm/2003">
 <defs>
  <style type="text/css">
   <![CDATA[
    .fil0 {fill:#8BC5F5}
    .fil1 {fill:white;fill-rule:nonzero}
   ]]>
  </style>
 </defs>
 <g id="Layer_x0020_1">
  <metadata id="CorelCorpID_0Corel-Layer"/>
  <g id="_2084277419376">
   <circle class="fil0" cx="8128" cy="8127.98" r="8128"/>
   <path class="fil1" d="M11166.62 6999.12c-36.47,-64.35 -104.82,-104.19 -178.82,-104.19l-2692.47 -0.01 451.4 -3448.99c0.73,-7.14 1.13,-14.38 1.13,-21.57 0,-114.15 -92.57,-206.72 -206.72,-206.72 -69.94,0 -135.12,35.38 -173.26,93.98l-3274.34 5736.52c-19.86,32.32 -30.43,69.64 -30.43,107.63 0,113.49 92.02,205.53 205.51,205.53l2652.23 0.01 -357.74 3454.19c-0.35,5.21 -0.58,10.49 -0.58,15.74 0,114.17 92.59,206.77 206.77,206.77 70.81,0 136.75,-36.28 174.63,-96.08l3220.24 -5735.91c19.05,-31.85 29.17,-68.38 29.17,-105.54 0,-35.51 -9.24,-70.46 -26.72,-101.35l0 -0.01z"/>
  </g>
 </g>
</svg>
