<?xml version="1.0" encoding="UTF-8"?>
<!DOCTYPE svg PUBLIC "-//W3C//DTD SVG 1.1//EN" "http://www.w3.org/Graphics/SVG/1.1/DTD/svg11.dtd">
<!-- Creator: CorelDRAW 2021 (64-Bit) -->
<svg xmlns="http://www.w3.org/2000/svg" xml:space="preserve" width="162.56mm" height="162.56mm" version="1.1" style="shape-rendering:geometricPrecision; text-rendering:geometricPrecision; image-rendering:optimizeQuality; fill-rule:evenodd; clip-rule:evenodd"
viewBox="0 0 16255.98 16255.98"
 xmlns:xlink="http://www.w3.org/1999/xlink"
 xmlns:xodm="http://www.corel.com/coreldraw/odm/2003">
 <defs>
  <style type="text/css">
   <![CDATA[
    .fil2 {fill:none}
    .fil0 {fill:#12357D}
    .fil1 {fill:#8BC5F5;fill-rule:nonzero}
   ]]>
  </style>
   <clipPath id="id0">
    <path d="M8127.99 -0.02c4489.07,0 8128,3638.94 8128,8128.01 0,4489.07 -3638.93,8128 -8128,8128 -4489.06,0 -8128,-3638.93 -8128,-8128 0,-4489.07 3638.94,-8128.01 8128,-8128.01z"/>
   </clipPath>
 </defs>
 <g id="Layer_x0020_1">
  <metadata id="CorelCorpID_0Corel-Layer"/>
  <path class="fil0" d="M8127.99 -0.02c4489.07,0 8128,3638.94 8128,8128.01 0,4489.07 -3638.93,8128 -8128,8128 -4489.06,0 -8128,-3638.93 -8128,-8128 0,-4489.07 3638.94,-8128.01 8128,-8128.01z"/>
  <g style="clip-path:url(#id0)">
   <g id="_2084418009824">
    <g>
     <g>
      <g>
       <rect class="fil1" x="1991.14" y="5777.3" width="944.31" height="613.89"/>
      </g>
     </g>
     <g>
      <g>
       <path class="fil1" d="M11156.69 7007.83l-5144.59 0c-602.45,0 -1092.59,-490.15 -1092.59,-1092.59l0 -1517.97 -4909.12 0 0 6260.71 9667.87 0c1171.48,0 2124.55,-953.07 2124.55,-2124.55 0,-580.71 -236.61,-1129.06 -646.12,-1525.6zm-7530.27 74.42l-2326.24 0 0 -1995.83 2326.24 0.01 0 1995.82zm2702.43 1383.44l-690.97 0 0 -690.96 690.97 0 0 690.96zm1282.12 0l-690.97 0 0 -690.96 690.97 0 0 690.96zm1282.12 0l-690.96 0 0 -690.96 690.96 0 0 690.96z"/>
      </g>
     </g>
     <g>
      <g>
       <path class="fil1" d="M8105.49 4895.13c-479.07,-325.7 -1038.49,-497.84 -1617.8,-497.84l-877.24 0 0 1517.95c0.02,221.46 180.2,401.63 401.65,401.63l4184.63 0 -2091.24 -1421.74z"/>
      </g>
     </g>
     <g>
      <g>
       <rect class="fil1" x="10.39" y="11168.18" width="9788.62" height="690.96"/>
      </g>
     </g>
     <g>
     </g>
     <g>
     </g>
     <g>
     </g>
     <g>
     </g>
     <g>
     </g>
     <g>
     </g>
     <g>
     </g>
     <g>
     </g>
     <g>
     </g>
     <g>
     </g>
     <g>
     </g>
     <g>
     </g>
     <g>
     </g>
     <g>
     </g>
     <g>
     </g>
    </g>
   </g>
  </g>
  <path class="fil2" d="M8127.99 -0.02c4489.07,0 8128,3638.94 8128,8128.01 0,4489.07 -3638.93,8128 -8128,8128 -4489.06,0 -8128,-3638.93 -8128,-8128 0,-4489.07 3638.94,-8128.01 8128,-8128.01z"/>
 </g>
</svg>
