<?xml version="1.0" encoding="UTF-8"?>
<!DOCTYPE svg PUBLIC "-//W3C//DTD SVG 1.1//EN" "http://www.w3.org/Graphics/SVG/1.1/DTD/svg11.dtd">
<!-- Creator: CorelDRAW 2021 (64-Bit) -->
<svg xmlns="http://www.w3.org/2000/svg" xml:space="preserve" width="162.56mm" height="162.56mm" version="1.1" style="shape-rendering:geometricPrecision; text-rendering:geometricPrecision; image-rendering:optimizeQuality; fill-rule:evenodd; clip-rule:evenodd"
viewBox="0 0 16255.98 16255.98"
 xmlns:xlink="http://www.w3.org/1999/xlink"
 xmlns:xodm="http://www.corel.com/coreldraw/odm/2003">
 <defs>
  <style type="text/css">
   <![CDATA[
    .fil2 {fill:none}
    .fil0 {fill:#8BC5F5}
    .fil1 {fill:white;fill-rule:nonzero}
   ]]>
  </style>
   <clipPath id="id0">
    <path d="M8127.99 -0.02c4489.07,0 8128.01,3638.93 8128.01,8128 0,4489.07 -3638.94,8128.01 -8128.01,8128.01 -4489.07,0 -8128,-3638.94 -8128,-8128.01 0,-4489.07 3638.93,-8128 8128,-8128z"/>
   </clipPath>
 </defs>
 <g id="Layer_x0020_1">
  <metadata id="CorelCorpID_0Corel-Layer"/>
  <path class="fil0" d="M8127.99 -0.02c4489.07,0 8128.01,3638.93 8128.01,8128 0,4489.07 -3638.94,8128.01 -8128.01,8128.01 -4489.07,0 -8128,-3638.94 -8128,-8128.01 0,-4489.07 3638.93,-8128 8128,-8128z"/>
  <g style="clip-path:url(#id0)">
   <g id="_2084280359040">
    <g>
     <g>
      <g>
       <path id="_1" class="fil1" d="M8497.75 4022.84c-241.63,-412.18 -497.47,-397.97 -739.1,0 -1108.63,1648.74 -2785.8,4121.87 -2785.8,5358.43 0,867.01 355.33,1662.96 923.86,2231.49 568.53,568.54 1364.48,923.87 2231.5,923.87 867.01,0 1662.96,-355.34 2231.49,-923.87 568.54,-568.52 923.87,-1364.47 923.87,-2231.49 -0.01,-1250.78 -1677.19,-3709.69 -2785.82,-5358.43zm1904.58 6765.55c-227.41,369.54 -554.32,696.45 -952.29,923.86 -184.77,99.5 -412.18,42.64 -511.68,-142.13 -113.71,-198.98 -42.64,-426.39 142.13,-525.89 284.27,-156.35 511.68,-383.76 682.24,-653.81 170.55,-270.06 270.05,-582.75 284.27,-909.65 14.21,-213.2 184.77,-369.55 397.97,-355.34 213.19,14.21 369.54,184.77 355.33,397.97 -28.42,454.83 -170.55,881.23 -397.97,1264.99z"/>
      </g>
     </g>
     <g>
     </g>
     <g>
     </g>
     <g>
     </g>
     <g>
     </g>
     <g>
     </g>
     <g>
     </g>
     <g>
     </g>
     <g>
     </g>
     <g>
     </g>
     <g>
     </g>
     <g>
     </g>
     <g>
     </g>
     <g>
     </g>
     <g>
     </g>
     <g>
     </g>
    </g>
   </g>
  </g>
  <path class="fil2" d="M8127.99 -0.02c4489.07,0 8128.01,3638.93 8128.01,8128 0,4489.07 -3638.94,8128.01 -8128.01,8128.01 -4489.07,0 -8128,-3638.94 -8128,-8128.01 0,-4489.07 3638.93,-8128 8128,-8128z"/>
 </g>
</svg>
